<?xml version="1.0" encoding="UTF-8" standalone="no"?>
<!-- Created with Inkscape (http://www.inkscape.org/) -->

<svg
   width="119.61328"
   height="119.61328"
   viewBox="0 0 31.647681 31.647681"
   version="1.1"
   id="svg1"
   xmlns:inkscape="http://www.inkscape.org/namespaces/inkscape"
   xmlns:sodipodi="http://sodipodi.sourceforge.net/DTD/sodipodi-0.dtd"
   xmlns="http://www.w3.org/2000/svg"
   xmlns:svg="http://www.w3.org/2000/svg">
  <sodipodi:namedview
     id="namedview1"
     pagecolor="#ffffff"
     bordercolor="#000000"
     borderopacity="0.25"
     inkscape:showpageshadow="2"
     inkscape:pageopacity="0.0"
     inkscape:pagecheckerboard="0"
     inkscape:deskcolor="#d1d1d1"
     inkscape:document-units="mm" />
  <defs
     id="defs1" />
  <g
     inkscape:label="Ebene 1"
     inkscape:groupmode="layer"
     id="layer1"
     transform="translate(-0.06924642,-0.06924642)">
    <path
       id="path1"
       style="fill:#496f93;fill-opacity:1;stroke-width:0.427215"
       d="M 15.893087,0.06924642 A 15.823805,15.823805 0 0 0 0.06924642,15.893087 15.823805,15.823805 0 0 0 7.5912679,29.342912 c 0.00495,-0.0081 0.010046,-0.01394 0.014986,-0.02222 C 8.153834,28.395844 8.7578633,27.357029 9.4180298,26.203569 10.078196,25.050108 10.666939,24.02322 11.183813,23.12262 h 0.613916 l 3.630787,6.359301 c 0.07676,0.13509 0.163732,0.244497 0.260966,0.327629 0.09723,0.08313 0.233213,0.164244 0.40721,0.243913 0.117704,0.04849 0.271087,0.0899 0.460437,0.12454 0.18935,0.03118 0.348001,0.04873 0.47594,0.05219 v 0.36897 h -4.536674 v -0.36897 c 0.39917,-0.01732 0.729124,-0.05191 0.99012,-0.10387 0.266114,-0.05196 0.398942,-0.116031 0.398942,-0.192236 0,-0.03117 -0.0048,-0.06918 -0.01499,-0.114205 -0.01023,-0.04503 -0.02552,-0.08525 -0.04599,-0.119889 L 12.918591,28.0479 H 9.1033203 c -0.1432919,0.24247 -0.2608338,0.45395 -0.35295,0.63407 -0.086999,0.18012 -0.1665824,0.346269 -0.2382284,0.498678 -0.066528,0.148945 -0.1123882,0.270278 -0.137976,0.363802 -0.022845,0.0835 -0.033725,0.150817 -0.036174,0.206706 a 15.823805,15.823805 0 0 0 0.7208862,0.393257 c 0.259921,0.04653 0.5433978,0.07525 0.8505941,0.08578 v 0.276986 a 15.823805,15.823805 0 0 0 5.9836138,1.209745 15.823805,15.823805 0 0 0 5.830652,-1.117761 h -0.65319 v -0.36897 c 0.138174,-0.0069 0.337933,-0.01715 0.598929,-0.03101 0.260996,-0.01386 0.445469,-0.03482 0.552938,-0.06253 0.168881,-0.04503 0.29169,-0.105697 0.368453,-0.181901 0.07676,-0.07967 0.114722,-0.188558 0.114722,-0.327112 v -5.341276 c 0,-0.121235 -0.02794,-0.221605 -0.08423,-0.301274 -0.05629,-0.08313 -0.189121,-0.152834 -0.398942,-0.208256 -0.153527,-0.04157 -0.348019,-0.07957 -0.583427,-0.114205 -0.23029,-0.0381 -0.420031,-0.06025 -0.56844,-0.06718 v -0.36897 h 4.905643 v 0.36897 c -0.158644,0.0035 -0.348385,0.01709 -0.568441,0.04134 -0.220055,0.02078 -0.411913,0.04856 -0.575675,0.0832 -0.194468,0.04157 -0.324662,0.109048 -0.391191,0.202572 -0.06653,0.09352 -0.09974,0.197302 -0.09974,0.311609 v 5.033284 A 15.823805,15.823805 0 0 0 31.716927,15.893087 15.823805,15.823805 0 0 0 15.893087,0.06924642 Z M 15.645557,1.929598 c 0.810271,0 1.533767,0.1374649 2.17041,0.4123779 0.644909,0.2749131 1.231975,0.5956643 1.761133,0.9622152 l 0.508496,-0.9348267 h 0.992187 l 0.09922,6.4740235 h -1.00459 C 19.990514,8.1011225 19.783801,7.3908874 19.552295,6.7127686 19.329057,6.0346496 19.035523,5.4208467 18.671729,4.8710205 18.316201,4.3395219 17.882104,3.9180664 17.369482,3.6064982 16.856862,3.2857663 16.228453,3.1253906 15.484326,3.1253906 c -0.785467,0 -1.455218,0.2792018 -2.00918,0.8381918 -0.55396,0.5589898 -0.830957,1.242042 -0.830957,2.0484537 0,0.8430668 0.177775,1.5437241 0.533301,2.1027141 0.355528,0.5498261 0.872311,1.0037701 1.550293,1.3611572 0.60357,0.3207319 1.19477,0.5999336 1.773535,0.8381916 0.587034,0.229095 1.153429,0.476842 1.699121,0.74259 0.496086,0.238259 0.971525,0.508399 1.42627,0.810804 0.463013,0.302403 0.864037,0.655127 1.203027,1.058333 0.372064,0.458189 0.644925,0.962227 0.818555,1.512052 0.181898,0.540663 0.272852,1.173105 0.272852,1.897042 0,1.72279 -0.574663,3.143259 -1.723926,4.261239 -1.149263,1.11798 -2.575585,1.6769 -4.278809,1.6769 -0.785467,0 -1.570978,-0.132676 -2.356445,-0.398425 -0.785467,-0.274914 -1.463488,-0.605242 -2.033984,-0.990121 L 10.994678,21.88807 H 10.00249 L 9.8288574,15.207857 h 1.0045896 c 0.206702,0.824739 0.446489,1.571218 0.719336,2.240174 0.281115,0.659791 0.649064,1.278383 1.103809,1.8557 0.429939,0.540663 0.930187,0.971696 1.500683,1.292428 0.578766,0.320732 1.248517,0.481107 2.00918,0.481107 0.570498,0 1.06661,-0.08258 1.488281,-0.24753 0.429941,-0.164948 0.777218,-0.398844 1.041797,-0.701249 0.264579,-0.302405 0.458889,-0.655128 0.58291,-1.058333 0.13229,-0.41237 0.198438,-0.884436 0.198438,-1.415934 0,-0.778922 -0.198445,-1.502489 -0.595313,-2.171444 C 18.485701,14.804657 17.8945,14.291559 17.109033,13.943335 16.571609,13.705077 15.955602,13.443481 15.261084,13.159403 14.566566,12.866164 13.967097,12.591232 13.462744,12.334648 12.470575,11.839804 11.697467,11.19403 11.143506,10.396781 10.597812,9.5903701 10.324951,8.5412614 10.324951,7.2491699 c 0,-0.7422652 0.136431,-1.4343784 0.409278,-2.0758423 0.272845,-0.6414637 0.661467,-1.214234 1.16582,-1.7182413 0.479548,-0.4765161 1.045943,-0.8473611 1.699121,-1.1131104 0.653178,-0.274913 1.335331,-0.4123779 2.046387,-0.4123779 z m -4.65398,22.798092 -1.6195392,2.857706 h 3.2700842 z"
       inkscape:export-filename="Icon.png"
       inkscape:export-xdpi="96"
       inkscape:export-ydpi="96" />
  </g>
</svg>
